<?xml version="1.0"?><svg style="enable-background:new 0 0 1080 1080;" version="1.1" viewBox="0 0 1080 1080" xml:space="preserve" xmlns="http://www.w3.org/2000/svg" xmlns:xlink="http://www.w3.org/1999/xlink"><g id="_x30_1_Net"/><g id="_x30_2_Android"/><g id="Layer_3"/><g id="Layer_4"/><g id="Layer_5"/><g id="Layer_6"/><g id="Layer_7"/><g id="Layer_8"/><g id="Layer_9"/><g id="Layer_10"><path d="   M983.762,393.781c-19.457,121.972-81.546,233.084-175.224,313.571S595.672,832.483,472.175,833.338   c-25.016,0.961-50.063-0.56-74.778-4.538c-106.51-18.099-185.919-108.118-190.587-216.054   c0.499-58.422,23.949-114.305,65.289-155.59c86.009-85.894,225.03-86.876,312.244-2.206   c41.919,40.695,66.157,96.241,67.483,154.649c0.935,36.891-15.045,69.249-47.887,70.184c-35.089,0-51.538-25.039-51.538-58.783   v-93.766c0.027-31.563-25.419-57.235-56.982-57.486h-78.597c-46.454-0.321-89.896,22.956-115.358,61.812   C260.04,594.762,277.696,679.577,340.898,721c16.232,10.638,34.541,17.702,53.712,20.722c45.889,7.221,92.306-9.337,123.264-43.971   l2.748-4.099l2.751,4.55c19.2,26.085,50.175,40.837,82.528,39.303c59.049-4.291,103.896-54.9,101.053-114.037   c0.276-24.401-2.459-48.743-8.142-72.475c-14.576-67.04-53.452-126.313-109.133-166.386   c-115.32-82.995-274.689-65.538-369.308,40.453c-45.688,51.18-70.815,117.461-70.538,186.067   c0.877,72.747,29.916,142.323,81.015,194.108c51.095,51.784,120.275,81.744,193,83.584c0,0,20.583,1.873,43.788,1.339   c112.799-0.714,223.051-33.61,317.8-94.822c1.348-0.938,2.695,0.935,1.799,2.3c-93.366,100.581-226.288,154.943-363.378,148.613   c-89.476,1.625-175.727-33.394-238.746-96.933c-63.024-63.542-97.343-150.079-94.999-239.545   c0.043-107.023,50.561-207.757,136.307-271.8c56.832-41.853,125.513-64.527,196.093-64.737h105.488   c83.318-0.062,162.771-35.145,218.947-96.677c0.587-0.651,1.367-1.096,2.226-1.271c1.759-0.381,3.565,0.407,4.482,1.955   c0.451,0.758,0.655,1.637,0.581,2.518c-4.471,47.414-20.255,93.064-46.026,133.113c-0.781,1.421-0.648,3.169,0.339,4.456   c0.981,1.284,2.627,1.87,4.199,1.495c98.751-22.308,181.046-90.174,221.751-182.87c0.51-0.817,1.212-1.495,2.049-1.976   c1.711-0.965,3.801-0.965,5.511,0c0.838,0.478,1.542,1.156,2.047,1.976C985.451,215.154,999.395,305.818,983.762,393.781   L983.762,393.781z M423.577,526.063c-45.313-0.009-82.054,36.718-82.063,82.031c-0.001,5.384,0.528,10.754,1.579,16.034   c6.475,32.551,31.918,57.998,64.469,64.478c44.445,8.839,87.639-20.026,96.478-64.471c1.049-5.276,1.577-10.643,1.576-16.023   V531.51c-0.152-3.036-2.579-5.463-5.615-5.615L423.577,526.063z" style="fill:none;stroke:#2B4B9B;stroke-width:13;stroke-linecap:round;stroke-linejoin:round;stroke-miterlimit:10;"/></g><g id="Layer_11"/><g id="Layer_12"/><g id="Layer_13"/><g id="Layer_14"/><g id="Layer_15"/><g id="Layer_16"/><g id="Layer_17"/><g id="Layer_18"/><g id="Layer_19"/><g id="Layer_20"/><g id="Layer_21"/></svg>